<svg width="264" height="285" viewBox="0 0 264 285" fill="none" xmlns="http://www.w3.org/2000/svg">
<path opacity="0.5" d="M37.0071 265.455V280H33.7116L28.456 272.358H28.3707V280H24.4219V265.455H27.7741L32.9446 273.068H33.0582V265.455H37.0071ZM52.9659 272.727C52.9659 274.347 52.651 275.713 52.0213 276.825C51.3916 277.933 50.5417 278.774 49.4716 279.347C48.4015 279.915 47.2083 280.199 45.892 280.199C44.5663 280.199 43.3684 279.912 42.2983 279.339C41.233 278.762 40.3854 277.919 39.7557 276.811C39.1307 275.698 38.8182 274.337 38.8182 272.727C38.8182 271.108 39.1307 269.744 39.7557 268.636C40.3854 267.524 41.233 266.683 42.2983 266.115C43.3684 265.542 44.5663 265.256 45.892 265.256C47.2083 265.256 48.4015 265.542 49.4716 266.115C50.5417 266.683 51.3916 267.524 52.0213 268.636C52.651 269.744 52.9659 271.108 52.9659 272.727ZM48.9034 272.727C48.9034 271.856 48.7874 271.122 48.5554 270.526C48.3281 269.924 47.9896 269.47 47.5398 269.162C47.0947 268.849 46.5455 268.693 45.892 268.693C45.2386 268.693 44.687 268.849 44.2372 269.162C43.7921 269.47 43.4536 269.924 43.2216 270.526C42.9943 271.122 42.8807 271.856 42.8807 272.727C42.8807 273.598 42.9943 274.335 43.2216 274.936C43.4536 275.533 43.7921 275.987 44.2372 276.3C44.687 276.607 45.2386 276.761 45.892 276.761C46.5455 276.761 47.0947 276.607 47.5398 276.3C47.9896 275.987 48.3281 275.533 48.5554 274.936C48.7874 274.335 48.9034 273.598 48.9034 272.727ZM62.7262 265.455V280H58.7773V265.455H62.7262ZM64.5977 265.455H69.5124L72.8931 273.693H73.0636L76.4442 265.455H81.359V280H77.4954V271.591H77.3817L74.1431 279.886H71.8136L68.5749 271.534H68.4613V280H64.5977V265.455ZM87.0089 280H82.7475L87.5487 265.455H92.9464L97.7475 280H93.4862L90.3043 269.46H90.1907L87.0089 280ZM86.2134 274.261H94.2248V277.216H86.2134V274.261ZM107.911 270.256C107.849 270.005 107.752 269.785 107.62 269.595C107.487 269.401 107.321 269.238 107.123 269.105C106.928 268.968 106.701 268.866 106.441 268.8C106.185 268.729 105.903 268.693 105.596 268.693C104.933 268.693 104.367 268.852 103.898 269.169C103.434 269.486 103.079 269.943 102.833 270.54C102.591 271.136 102.471 271.856 102.471 272.699C102.471 273.551 102.587 274.28 102.819 274.886C103.051 275.492 103.396 275.956 103.855 276.278C104.315 276.6 104.885 276.761 105.567 276.761C106.168 276.761 106.668 276.674 107.066 276.499C107.468 276.323 107.769 276.075 107.968 275.753C108.167 275.431 108.266 275.052 108.266 274.616L108.948 274.688H105.624V271.875H112.073V273.892C112.073 275.218 111.791 276.352 111.228 277.294C110.669 278.232 109.897 278.951 108.912 279.453C107.932 279.95 106.808 280.199 105.539 280.199C104.123 280.199 102.88 279.898 101.81 279.297C100.74 278.696 99.9042 277.839 99.3029 276.726C98.7063 275.613 98.408 274.29 98.408 272.756C98.408 271.553 98.5903 270.488 98.9549 269.56C99.3242 268.632 99.8356 267.848 100.489 267.209C101.142 266.565 101.898 266.08 102.755 265.753C103.612 265.421 104.53 265.256 105.51 265.256C106.372 265.256 107.172 265.379 107.911 265.625C108.654 265.866 109.31 266.212 109.878 266.662C110.451 267.107 110.913 267.635 111.263 268.246C111.614 268.857 111.827 269.527 111.902 270.256H107.911ZM113.914 280V265.455H124.397V268.636H117.863V271.136H123.857V274.318H117.863V276.818H124.369V280H113.914ZM138.948 265.455H142.897V274.773C142.897 275.881 142.632 276.839 142.101 277.649C141.576 278.454 140.842 279.077 139.9 279.517C138.957 279.953 137.864 280.17 136.618 280.17C135.364 280.17 134.265 279.953 133.323 279.517C132.381 279.077 131.647 278.454 131.121 277.649C130.6 276.839 130.34 275.881 130.34 274.773V265.455H134.289V274.432C134.289 274.882 134.388 275.284 134.587 275.639C134.786 275.99 135.06 276.264 135.411 276.463C135.766 276.662 136.168 276.761 136.618 276.761C137.073 276.761 137.475 276.662 137.826 276.463C138.176 276.264 138.451 275.99 138.65 275.639C138.848 275.284 138.948 274.882 138.948 274.432V265.455ZM144.773 280V265.455H151.052C152.131 265.455 153.076 265.668 153.886 266.094C154.695 266.52 155.325 267.119 155.775 267.891C156.225 268.662 156.45 269.564 156.45 270.597C156.45 271.638 156.218 272.54 155.754 273.303C155.294 274.065 154.648 274.652 153.815 275.064C152.986 275.476 152.018 275.682 150.91 275.682H147.16V272.614H150.114C150.578 272.614 150.974 272.533 151.3 272.372C151.632 272.206 151.885 271.972 152.06 271.669C152.24 271.366 152.33 271.009 152.33 270.597C152.33 270.18 152.24 269.825 152.06 269.531C151.885 269.233 151.632 269.006 151.3 268.849C150.974 268.688 150.578 268.608 150.114 268.608H148.722V280H144.773ZM157.898 280V265.455H161.847V276.818H167.728V280H157.898ZM182.849 272.727C182.849 274.347 182.534 275.713 181.904 276.825C181.274 277.933 180.424 278.774 179.354 279.347C178.284 279.915 177.091 280.199 175.775 280.199C174.449 280.199 173.251 279.912 172.181 279.339C171.116 278.762 170.268 277.919 169.638 276.811C169.013 275.698 168.701 274.337 168.701 272.727C168.701 271.108 169.013 269.744 169.638 268.636C170.268 267.524 171.116 266.683 172.181 266.115C173.251 265.542 174.449 265.256 175.775 265.256C177.091 265.256 178.284 265.542 179.354 266.115C180.424 266.683 181.274 267.524 181.904 268.636C182.534 269.744 182.849 271.108 182.849 272.727ZM178.786 272.727C178.786 271.856 178.67 271.122 178.438 270.526C178.211 269.924 177.872 269.47 177.423 269.162C176.978 268.849 176.428 268.693 175.775 268.693C175.121 268.693 174.57 268.849 174.12 269.162C173.675 269.47 173.336 269.924 173.104 270.526C172.877 271.122 172.763 271.856 172.763 272.727C172.763 273.598 172.877 274.335 173.104 274.936C173.336 275.533 173.675 275.987 174.12 276.3C174.57 276.607 175.121 276.761 175.775 276.761C176.428 276.761 176.978 276.607 177.423 276.3C177.872 275.987 178.211 275.533 178.438 274.936C178.67 274.335 178.786 273.598 178.786 272.727ZM187.536 280H183.275L188.076 265.455H193.474L198.275 280H194.013L190.832 269.46H190.718L187.536 280ZM186.741 274.261H194.752V277.216H186.741V274.261ZM205.272 280H199.676V265.455H205.216C206.712 265.455 208.004 265.746 209.093 266.328C210.187 266.906 211.03 267.739 211.622 268.828C212.218 269.912 212.517 271.212 212.517 272.727C212.517 274.242 212.221 275.545 211.629 276.634C211.037 277.718 210.199 278.551 209.115 279.134C208.03 279.711 206.75 280 205.272 280ZM203.625 276.648H205.13C205.85 276.648 206.463 276.532 206.97 276.3C207.481 276.068 207.869 275.668 208.135 275.099C208.404 274.531 208.539 273.741 208.539 272.727C208.539 271.714 208.402 270.923 208.127 270.355C207.858 269.787 207.46 269.387 206.934 269.155C206.413 268.923 205.774 268.807 205.017 268.807H203.625V276.648ZM214.344 280V265.455H224.827V268.636H218.293V271.136H224.287V274.318H218.293V276.818H224.798V280H214.344ZM232.382 280H226.785V265.455H232.325C233.821 265.455 235.114 265.746 236.203 266.328C237.297 266.906 238.139 267.739 238.731 268.828C239.328 269.912 239.626 271.212 239.626 272.727C239.626 274.242 239.33 275.545 238.738 276.634C238.146 277.718 237.308 278.551 236.224 279.134C235.14 279.711 233.859 280 232.382 280ZM230.734 276.648H232.24C232.959 276.648 233.573 276.532 234.079 276.3C234.591 276.068 234.979 275.668 235.244 275.099C235.514 274.531 235.649 273.741 235.649 272.727C235.649 271.714 235.511 270.923 235.237 270.355C234.967 269.787 234.569 269.387 234.044 269.155C233.523 268.923 232.884 268.807 232.126 268.807H230.734V276.648Z" fill="#9C9C9C"/>
<g opacity="0.2">
<path d="M98.5107 30.5878L6.13281 55.4493L52.0747 227.988L144.453 203.624L58.4967 180.254L98.5107 30.5878Z" fill="#DEDEDE"/>
<path d="M116.629 0.419922L70.6045 173.319L213.751 211.924L259.776 39.0248L116.629 0.419922Z" fill="#DEDEDE"/>
<path d="M125.844 23.7312L96.4395 134.194L210.956 165.078L240.361 54.6151L125.844 23.7312Z" fill="#575757"/>
<path d="M169.647 72.3556C169.153 75.339 167.177 77.3279 164.707 78.8196C162.237 80.3113 159.273 80.8085 156.309 79.8141C153.345 79.3169 151.369 77.3279 149.887 74.8418C148.405 72.3556 147.911 69.3723 148.899 66.3889C149.393 63.4055 151.369 61.4166 153.839 59.9249C156.309 58.4332 159.273 57.936 162.237 58.9304C165.201 59.4277 167.177 61.4166 168.659 63.9027C170.141 66.3889 170.141 69.3723 169.647 72.3556ZM182.491 93.7365C181.997 93.2393 181.503 93.2393 181.503 93.2393C181.009 93.2393 180.515 93.2393 180.021 93.7365L159.273 109.151L151.369 94.731C150.875 94.2337 150.381 94.2337 149.887 94.2337C149.393 94.2337 148.899 94.2337 148.405 94.731L128.645 108.653L126.175 117.106C125.681 118.101 126.175 119.592 126.669 120.587C127.163 121.581 128.151 122.079 129.139 122.576L187.431 138.487C187.925 138.487 188.419 138.487 188.913 138.487C189.407 138.487 189.901 137.99 190.395 137.99C190.889 137.493 191.383 137.493 191.877 136.995C192.371 136.498 192.371 136.001 192.865 135.504L197.805 116.609L182.491 93.7365Z" fill="#DEDEDE"/>
</g>
</svg>
