<svg width="169" height="152" viewBox="0 0 169 152" fill="none" xmlns="http://www.w3.org/2000/svg">
<g opacity="0.1">
<path d="M61.2998 20.3034L0.0644531 36.8054L30.5184 151.329L91.7537 135.157L34.7754 119.645L61.2998 20.3034Z" fill="#DEDEDE"/>
<path d="M73.3103 0.279297L42.8014 115.042L137.69 140.666L168.199 25.9035L73.3103 0.279297Z" fill="#DEDEDE"/>
<path d="M79.4187 15.7523L59.9269 89.0727L135.838 109.572L155.33 36.2517L79.4187 15.7523Z" fill="#575757"/>
<path d="M108.455 48.027C108.127 50.0073 106.817 51.3274 105.18 52.3175C103.543 53.3076 101.578 53.6377 99.6132 52.9776C97.6484 52.6476 96.3386 51.3274 95.3562 49.6772C94.3738 48.027 94.0464 46.0468 94.7013 44.0665C95.0287 42.0863 96.3386 40.7662 97.9759 39.776C99.6132 38.7859 101.578 38.4559 103.543 39.116C105.508 39.446 106.817 40.7662 107.8 42.4164C108.782 44.0666 108.782 46.0468 108.455 48.027ZM116.969 62.2187C116.641 61.8887 116.314 61.8886 116.314 61.8886C115.986 61.8886 115.659 61.8887 115.331 62.2187L101.578 72.4499L96.3386 62.8788C96.0111 62.5487 95.6837 62.5487 95.3562 62.5487C95.0287 62.5487 94.7013 62.5487 94.3738 62.8788L81.2753 72.1199L79.638 77.7305C79.3106 78.3906 79.638 79.3807 79.9655 80.0408C80.293 80.7009 80.9479 81.0309 81.6028 81.3609L120.243 91.9222C120.571 91.9222 120.898 91.9222 121.226 91.9222C121.553 91.9222 121.881 91.5922 122.208 91.5922C122.536 91.2621 122.863 91.2621 123.19 90.9321C123.518 90.602 123.518 90.272 123.845 89.942L127.12 77.4005L116.969 62.2187Z" fill="#DEDEDE"/>
</g>
</svg>
