<svg width="40" height="40" viewBox="0 0 40 40" fill="none" xmlns="http://www.w3.org/2000/svg">
<circle cx="20" cy="20" r="20" fill="#FCFCFC"/>
<path d="M26.5923 22.1974C26.0574 23.6735 25.1536 24.9925 23.9542 26.0476C22.7548 27.1027 21.2935 27.8642 19.6885 28.2705C18.0835 28.6768 16.38 28.7164 14.7159 28.3862C13.0518 28.056 11.4739 27.3653 10.1099 26.3698C12.3939 26.519 14.6319 25.9803 16.4983 24.8319C18.3647 23.6835 19.7621 21.9854 20.4873 19.9846C21.2126 17.9837 21.2277 15.7846 20.5306 13.707C19.8335 11.6295 18.4605 9.78184 16.6113 8.43292C18.2964 8.54268 19.9505 9.02339 21.4396 9.83615C22.9288 10.6489 24.2113 11.7708 25.1832 13.1112C26.1551 14.4515 26.7891 15.9725 27.0339 17.551C27.2787 19.1296 27.1274 20.7213 26.5923 22.1974Z" fill="#121212"/>
</svg>
